<svg xmlns="http://www.w3.org/2000/svg" viewBox="0 0 291.63 50.34"><defs><style>.cls-1{fill:#172344;}.cls-2{fill:#4e73f8;}.cls-3{fill:#fff;}</style></defs><g id="Layer_2" data-name="Layer 2"><path class="cls-1" d="M117,41c0-.09.07-.25.31-.47a3.69,3.69,0,0,1,1.1-.65,4.22,4.22,0,0,1,1.65-.32q2.3,0,3,3l5.23,23.78L134.45,46q.62-2.34,3.39-2.34A3.24,3.24,0,0,1,141.26,46l6,20.24,5.37-23.73c.44-2,1.38-3,2.83-3a3.86,3.86,0,0,1,1.57.32,3.47,3.47,0,0,1,1.05.65c.22.22.32.38.29.47L151,70.43a2.26,2.26,0,0,1-1,1.57,4.89,4.89,0,0,1-2.44.48,4.21,4.21,0,0,1-2.24-.48,2.79,2.79,0,0,1-1.12-1.62l-6.25-20.9-6.55,20.9a2.63,2.63,0,0,1-1,1.62,4,4,0,0,1-2.21.48,5.11,5.11,0,0,1-2.44-.45,2.25,2.25,0,0,1-1-1.6Z" transform="translate(-40.99 -31.59)"/><path class="cls-1" d="M156.46,60.08A12.24,12.24,0,0,1,160,51a12.37,12.37,0,0,1,9.11-3.53,12,12,0,0,1,9,3.58,12.49,12.49,0,0,1,3.5,9.14,12.3,12.3,0,0,1-3.5,9,13.28,13.28,0,0,1-18.11,0A12.49,12.49,0,0,1,156.46,60.08Zm6.85-6A8.39,8.39,0,0,0,161,60.09a8.61,8.61,0,0,0,2.3,6.11,8,8,0,0,0,11.47,0,8.45,8.45,0,0,0,2.27-6,8.69,8.69,0,0,0-2.24-6.14,7.47,7.47,0,0,0-5.74-2.43A7.66,7.66,0,0,0,163.31,54Z" transform="translate(-40.99 -31.59)"/><path class="cls-1" d="M184.3,70V48.38c0-.06.07-.14.22-.22a2.73,2.73,0,0,1,.67-.22,4.6,4.6,0,0,1,.91-.09q3.06,0,3.1,4a6.07,6.07,0,0,1,6.08-4.4,4.6,4.6,0,0,1,2.91.82,2.73,2.73,0,0,1,1.05,2.27A3.16,3.16,0,0,1,198.9,52a2.22,2.22,0,0,1-.72.86c-.26.15-.4.21-.43.18A4.64,4.64,0,0,0,194.7,52q-5.44,0-5.45,9.43V70c0,1.58-.73,2.36-2.19,2.36h-.57Q184.3,72.33,184.3,70Z" transform="translate(-40.99 -31.59)"/><path class="cls-1" d="M201.88,70V38.35c0-.07.07-.14.22-.23a2.28,2.28,0,0,1,.67-.24,4.6,4.6,0,0,1,.91-.09c2.1,0,3.15,1.41,3.15,4.25V58.83l8.35-9.3a3.7,3.7,0,0,1,3-1.68,2.49,2.49,0,0,1,1.45.45,3.21,3.21,0,0,1,.91.89c.18.29.24.5.17.61l-8.74,9.64L222,70.38a.36.36,0,0,1,0,.1,1.19,1.19,0,0,1-.22.53,3.13,3.13,0,0,1-1,.92,2.73,2.73,0,0,1-1.49.45,3.79,3.79,0,0,1-3-1.68l-9.55-10.31V70c0,1.56-.73,2.34-2.2,2.34h-.56Q201.88,72.33,201.88,70Z" transform="translate(-40.99 -31.59)"/><path class="cls-1" d="M224.56,79.58V48.38c0-.06.07-.14.22-.22a2.84,2.84,0,0,1,.68-.22,4.7,4.7,0,0,1,.92-.09q3.09,0,3.13,4.19a9.69,9.69,0,0,1,8.42-4.56,10.35,10.35,0,0,1,8,3.5,13,13,0,0,1,3.16,9.11A13.14,13.14,0,0,1,246,69.25a10.47,10.47,0,0,1-8.15,3.55,9.35,9.35,0,0,1-5-1.32,9,9,0,0,1-3.27-3.25V79.58c0,1.56-.74,2.35-2.22,2.35h-.56C225.3,81.93,224.56,81.15,224.56,79.58Zm4.95-17.95a6.56,6.56,0,0,0,2.17,5,7.39,7.39,0,0,0,5.22,2,6.87,6.87,0,0,0,5.41-2.35,9,9,0,0,0,2.07-6.17A9,9,0,0,0,242.31,54,6.71,6.71,0,0,0,237,51.63a7.47,7.47,0,0,0-7.49,5v5Z" transform="translate(-40.99 -31.59)"/><path class="cls-1" d="M252,70V38.35c0-.07.09-.14.26-.23a3,3,0,0,1,.67-.24,4.1,4.1,0,0,1,.88-.09c2.1,0,3.15,1.41,3.15,4.25V70c0,1.56-.74,2.34-2.2,2.34h-.51Q252,72.33,252,70Z" transform="translate(-40.99 -31.59)"/><path class="cls-1" d="M259.91,65.85a6.39,6.39,0,0,1,3.93-6.06q3.93-2,12.16-2.11h.66V57.2a5.38,5.38,0,0,0-1.53-4.14,6.29,6.29,0,0,0-4.44-1.43,7.22,7.22,0,0,0-7,4q0,.09-.72,0a3.29,3.29,0,0,1-1.48-.71,1.94,1.94,0,0,1-.75-1.62q0-2,2.8-3.93a13,13,0,0,1,7.46-1.9q5.14,0,7.87,2.5a9.2,9.2,0,0,1,2.72,7.12V71.84c0,.14-.2.26-.59.37a4.39,4.39,0,0,1-1.22.17q-3.06,0-3.1-3.88a9.42,9.42,0,0,1-3.63,3.07A11.32,11.32,0,0,1,268,72.7a8.78,8.78,0,0,1-5.94-1.88A6.22,6.22,0,0,1,259.91,65.85Zm4.76-.19a3.09,3.09,0,0,0,1.21,2.56,5.36,5.36,0,0,0,3.37.94,7.77,7.77,0,0,0,5.33-1.83,5.92,5.92,0,0,0,2.08-4.68V60.79l-1.37,0a23.89,23.89,0,0,0-8,1.31A3.71,3.71,0,0,0,264.67,65.66Z" transform="translate(-40.99 -31.59)"/><path class="cls-1" d="M284,60.08a12.26,12.26,0,0,1,3.56-9,12.14,12.14,0,0,1,9-3.58q4.81,0,7.56,2.26t2.73,4.4a1.89,1.89,0,0,1-.7,1.51,3,3,0,0,1-1.43.72c-.48.08-.76.07-.82,0a7.18,7.18,0,0,0-7.24-4.71A7.41,7.41,0,0,0,291,54a8.48,8.48,0,0,0-2.26,6A8.73,8.73,0,0,0,291,66.22a7.38,7.38,0,0,0,5.66,2.43,7.18,7.18,0,0,0,7.24-4.72,3.73,3.73,0,0,1,.85,0,2.54,2.54,0,0,1,1.38.68,2,2,0,0,1,.72,1.57c0,1.4-.91,2.85-2.75,4.36a11.55,11.55,0,0,1-7.54,2.26,12.12,12.12,0,0,1-9-3.59A12.43,12.43,0,0,1,284,60.08Z" transform="translate(-40.99 -31.59)"/><path class="cls-1" d="M308.79,60.25a12.68,12.68,0,0,1,3.49-9.13,11.66,11.66,0,0,1,8.79-3.64,11,11,0,0,1,8.38,3.36,12.22,12.22,0,0,1,3.17,8.75V60a1.23,1.23,0,0,1-1.5,1.46H313.33a7.72,7.72,0,0,0,2.51,5.34,8.07,8.07,0,0,0,5.65,2.06c3.46,0,6-1.32,7.54-4,.07-.06.3,0,.7.08a3,3,0,0,1,1.25.79,2,2,0,0,1,.66,1.56c0,1.25-1,2.47-2.88,3.69a13.62,13.62,0,0,1-7.37,1.82,11.89,11.89,0,0,1-12.6-12.55Zm4.54-2.15h14.41a7.61,7.61,0,0,0-2-5,6.44,6.44,0,0,0-4.81-1.85,7.2,7.2,0,0,0-5.06,1.93A8.08,8.08,0,0,0,313.33,58.1Z" transform="translate(-40.99 -31.59)"/><path class="cls-2" d="M65.31,31.59h40.36a0,0,0,0,1,0,0V55.9A24.31,24.31,0,0,1,81.35,80.21h-16A24.31,24.31,0,0,1,41,55.9v0A24.31,24.31,0,0,1,65.31,31.59Z" transform="translate(105.66 80.21) rotate(-180)"/><circle class="cls-3" cx="24.11" cy="24.31" r="2.64"/><circle class="cls-3" cx="32.34" cy="24.31" r="2.64"/><circle class="cls-3" cx="40.56" cy="24.31" r="2.64"/></g></svg>